<svg id="Layer_1" data-name="Layer 1" xmlns="http://www.w3.org/2000/svg" viewBox="0 0 100 100"><defs><style>.cls-1,.cls-7{fill:#e8f4fa;}.cls-11,.cls-2{fill:#fff;}.cls-3{fill:none;}.cls-10,.cls-11,.cls-16,.cls-18,.cls-21,.cls-3,.cls-4,.cls-5,.cls-6,.cls-7,.cls-8,.cls-9{stroke:#45413c;stroke-linecap:round;stroke-linejoin:round;}.cls-4{fill:#bdbec0;}.cls-5{fill:#c0dceb;}.cls-6{fill:#8ca4b8;}.cls-8{fill:#00dba8;}.cls-9{fill:#e0e0e0;}.cls-10{fill:#ffcebf;}.cls-12{fill:#45413c;}.cls-13{fill:#ffb59e;}.cls-14{fill:#a86c4d;}.cls-15{fill:#de926a;}.cls-16{fill:#00dfeb;}.cls-17{fill:#f0f0f0;}.cls-18{fill:#ffe500;}.cls-19{fill:#80ddff;}.cls-20{fill:#4acfff;}.cls-21{fill:#947746;}.cls-22{fill:#020202;opacity:0.15;}</style></defs><title>programmer-male</title><path class="cls-1" d="M90.5,50A40,40,0,1,0,14.06,66.5H86.94A39.85,39.85,0,0,0,90.5,50Z"/><path class="cls-2" d="M14.06,66.5a40,40,0,0,0,72.88,0Z"/><line class="cls-3" x1="11" y1="66.5" x2="89" y2="66.5"/><line class="cls-3" x1="6.5" y1="66.5" x2="9" y2="66.5"/><line class="cls-3" x1="91" y1="66.5" x2="93.5" y2="66.5"/><rect class="cls-4" x="65.17" y="29.5" width="17.5" height="34"/><rect class="cls-5" x="65.17" y="27.5" width="17.5" height="2"/><path class="cls-5" d="M63.17,66.5h2v-39a1,1,0,0,0-1-1h0a1,1,0,0,0-1,1Z"/><path class="cls-5" d="M82.67,66.5h2v-39a1,1,0,0,0-1-1h0a1,1,0,0,0-1,1Z"/><rect class="cls-4" x="43.67" y="29.5" width="17.5" height="34"/><path class="cls-6" d="M46.67,31.5h11.5a1,1,0,0,1,1,1v2a0,0,0,0,1,0,0H45.67a0,0,0,0,1,0,0v-2A1,1,0,0,1,46.67,31.5Z"/><path class="cls-7" d="M53.17,31.5l-3,3h9v-2a1,1,0,0,0-1-1Z"/><path class="cls-6" d="M46.67,47.5h11.5a1,1,0,0,1,1,1v2a0,0,0,0,1,0,0H45.67a0,0,0,0,1,0,0v-2A1,1,0,0,1,46.67,47.5Z"/><path class="cls-7" d="M53.17,47.5l-3,3h9v-2a1,1,0,0,0-1-1Z"/><path class="cls-6" d="M45.67,34.5h13.5a0,0,0,0,1,0,0v2a1,1,0,0,1-1,1H46.67a1,1,0,0,1-1-1v-2A0,0,0,0,1,45.67,34.5Z"/><path class="cls-7" d="M53.17,34.5l-3,3h8a1,1,0,0,0,1-1v-2Z"/><path class="cls-6" d="M68.17,31.5h11.5a1,1,0,0,1,1,1v2a0,0,0,0,1,0,0H67.17a0,0,0,0,1,0,0v-2A1,1,0,0,1,68.17,31.5Z"/><path class="cls-7" d="M74.67,31.5l-3,3h9v-2a1,1,0,0,0-1-1Z"/><path class="cls-6" d="M67.17,34.5h13.5a0,0,0,0,1,0,0v2a1,1,0,0,1-1,1H68.17a1,1,0,0,1-1-1v-2A0,0,0,0,1,67.17,34.5Z"/><path class="cls-7" d="M74.67,34.5l-3,3h8a1,1,0,0,0,1-1v-2Z"/><path class="cls-6" d="M68.17,39.5h11.5a1,1,0,0,1,1,1v2a0,0,0,0,1,0,0H67.17a0,0,0,0,1,0,0v-2A1,1,0,0,1,68.17,39.5Z"/><path class="cls-7" d="M74.67,39.5l-3,3h9v-2a1,1,0,0,0-1-1Z"/><path class="cls-6" d="M67.17,42.5h13.5a0,0,0,0,1,0,0v2a1,1,0,0,1-1,1H68.17a1,1,0,0,1-1-1v-2A0,0,0,0,1,67.17,42.5Z"/><path class="cls-7" d="M74.67,42.5l-3,3h8a1,1,0,0,0,1-1v-2Z"/><path class="cls-6" d="M46.67,55.5h11.5a1,1,0,0,1,1,1v2a0,0,0,0,1,0,0H45.67a0,0,0,0,1,0,0v-2A1,1,0,0,1,46.67,55.5Z"/><path class="cls-7" d="M53.17,55.5l-3,3h9v-2a1,1,0,0,0-1-1Z"/><path class="cls-6" d="M45.67,58.5h13.5a0,0,0,0,1,0,0v2a1,1,0,0,1-1,1H46.67a1,1,0,0,1-1-1v-2A0,0,0,0,1,45.67,58.5Z"/><path class="cls-7" d="M53.17,58.5l-3,3h8a1,1,0,0,0,1-1v-2Z"/><path class="cls-8" d="M46.67,39.5h11.5a1,1,0,0,1,1,1v2a0,0,0,0,1,0,0H45.67a0,0,0,0,1,0,0v-2A1,1,0,0,1,46.67,39.5Z"/><path class="cls-7" d="M53.17,39.5l-3,3h9v-2a1,1,0,0,0-1-1Z"/><path class="cls-8" d="M45.67,42.5h13.5a0,0,0,0,1,0,0v2a1,1,0,0,1-1,1H46.67a1,1,0,0,1-1-1v-2A0,0,0,0,1,45.67,42.5Z"/><path class="cls-7" d="M53.17,42.5l-3,3h8a1,1,0,0,0,1-1v-2Z"/><path class="cls-8" d="M68.17,47.5h11.5a1,1,0,0,1,1,1v2a0,0,0,0,1,0,0H67.17a0,0,0,0,1,0,0v-2A1,1,0,0,1,68.17,47.5Z"/><path class="cls-7" d="M74.67,47.5l-3,3h9v-2a1,1,0,0,0-1-1Z"/><path class="cls-8" d="M67.17,50.5h13.5a0,0,0,0,1,0,0v2a1,1,0,0,1-1,1H68.17a1,1,0,0,1-1-1v-2A0,0,0,0,1,67.17,50.5Z"/><path class="cls-7" d="M74.67,50.5l-3,3h8a1,1,0,0,0,1-1v-2Z"/><path class="cls-8" d="M68.17,55.5h11.5a1,1,0,0,1,1,1v2a0,0,0,0,1,0,0H67.17a0,0,0,0,1,0,0v-2A1,1,0,0,1,68.17,55.5Z"/><path class="cls-7" d="M74.67,55.5l-3,3h9v-2a1,1,0,0,0-1-1Z"/><path class="cls-8" d="M67.17,58.5h13.5a0,0,0,0,1,0,0v2a1,1,0,0,1-1,1H68.17a1,1,0,0,1-1-1v-2A0,0,0,0,1,67.17,58.5Z"/><path class="cls-7" d="M74.67,58.5l-3,3h8a1,1,0,0,0,1-1v-2Z"/><path class="cls-8" d="M45.67,50.5h13.5a0,0,0,0,1,0,0v2a1,1,0,0,1-1,1H46.67a1,1,0,0,1-1-1v-2A0,0,0,0,1,45.67,50.5Z"/><path class="cls-7" d="M53.17,50.5l-3,3h8a1,1,0,0,0,1-1v-2Z"/><rect class="cls-5" x="43.67" y="27.5" width="17.5" height="2"/><path class="cls-5" d="M41.67,66.5h2v-39a1,1,0,0,0-1-1h0a1,1,0,0,0-1,1Z"/><path class="cls-5" d="M61.17,66.5h2v-39a1,1,0,0,0-1-1h0a1,1,0,0,0-1,1Z"/><path class="cls-3" d="M46.08,54.38h0A2.86,2.86,0,0,1,49,57.25V78a4.22,4.22,0,0,0,4.22,4.22H57"/><path class="cls-9" d="M58.15,83.12H61V80.83H58.15A1.15,1.15,0,0,0,57,82h0A1.15,1.15,0,0,0,58.15,83.12Z"/><path class="cls-3" d="M58.15,63.57V70.1a2.67,2.67,0,0,0,2.68,2.67h2.5a4.6,4.6,0,0,1,4.6,4.61h0a4.6,4.6,0,0,1-4.6,4.6H61"/><path class="cls-3" d="M54.7,63.57V70a2.76,2.76,0,0,0,2.76,2.75h5.87"/><path class="cls-10" d="M29.4,22.18a6.89,6.89,0,0,0-6.9,6.89V30a1.41,1.41,0,0,0-1.15,1.38,1.42,1.42,0,0,0,1.3,1.4,6.9,6.9,0,0,0,13.65-1.4V29.07A6.89,6.89,0,0,0,29.4,22.18Z"/><path class="cls-11" d="M17.9,51.5a10.93,10.93,0,1,1,21.85,0v1.73H36.88v8.62h-15V53.23h-4Z"/><circle class="cls-12" cx="28.54" cy="29.94" r="0.86"/><circle class="cls-12" cx="33.14" cy="29.94" r="0.86"/><circle class="cls-13" cx="26.24" cy="32.24" r="0.86"/><path class="cls-3" d="M28.83,34.3a3.1,3.1,0,0,0,3.45,0"/><path class="cls-14" d="M36.88,27.35a7.48,7.48,0,0,0-15,0v2.3a5.94,5.94,0,0,0,4-3.45C29.18,28.37,33.43,27.93,36.88,27.35Z"/><path class="cls-15" d="M29.4,22.75a7.49,7.49,0,0,1,6.94,4.68l.54-.08a7.48,7.48,0,0,0-15,0v2.3h0A7.47,7.47,0,0,1,29.4,22.75Z"/><path class="cls-3" d="M36.88,27.35a7.48,7.48,0,0,0-15,0v2.3a5.94,5.94,0,0,0,4-3.45C29.18,28.37,33.43,27.93,36.88,27.35Z"/><path class="cls-3" d="M24.8,25.05A3.79,3.79,0,0,0,26,26.2"/><path class="cls-10" d="M17.9,65a2,2,0,0,0,4,0V53.23h-4Z"/><line class="cls-3" x1="21.93" y1="53.23" x2="21.93" y2="49.77"/><line class="cls-3" x1="36.88" y1="53.23" x2="36.88" y2="49.77"/><path class="cls-10" d="M26.56,40.81,29.4,44.6l2.74-3.51a11,11,0,0,0-3.31-.52A11.35,11.35,0,0,0,26.56,40.81Z"/><path class="cls-16" d="M29.4,44.6l2.12.35a1,1,0,0,0,1.1-1.11l-.48-2.75Z"/><path class="cls-16" d="M26.56,40.81l-.43,3.07A1,1,0,0,0,27.24,45l2.16-.36Z"/><line class="cls-3" x1="29.4" y1="44.6" x2="29.4" y2="61.85"/><rect class="cls-2" x="32.85" y="48.63" width="13.23" height="8.63" rx="1" ry="1"/><rect class="cls-17" x="32.85" y="51.5" width="13.23" height="5.75" rx="1.15" ry="1.15"/><rect class="cls-3" x="32.85" y="48.63" width="13.23" height="8.63" rx="1" ry="1"/><circle class="cls-18" cx="39.47" cy="53.8" r="1.15"/><line class="cls-3" x1="39.47" y1="51.5" x2="40.04" y2="50.93"/><path class="cls-10" d="M37.69,56.68h3a.81.81,0,0,1,.81.81v.86a1.2,1.2,0,0,1-1.2,1.2h-2.2a1.2,1.2,0,0,1-1.2-1.2v-.86A.81.81,0,0,1,37.69,56.68Z"/><path class="cls-19" d="M36.3,79.67a3.68,3.68,0,0,1,.58,0V61.85h-15V79.67h4.6a3.1,3.1,0,0,1,.69.08l.4-11a1.79,1.79,0,0,1,3.57,0l.51,10.92Z"/><rect class="cls-20" x="21.93" y="61.85" width="14.95" height="2.88"/><path class="cls-3" d="M36.3,79.67a3.68,3.68,0,0,1,.58,0V61.85h-15V79.67h4.6a3.1,3.1,0,0,1,.69.08l.4-11a1.79,1.79,0,0,1,3.57,0l.51,10.92Z"/><path class="cls-21" d="M39.75,83.12a3.45,3.45,0,0,0-3.45-3.45H31.7V82a1.15,1.15,0,0,0,1.15,1.14Z"/><path class="cls-21" d="M30,83.12a3.46,3.46,0,0,0-3.45-3.45h-4.6V82a1.14,1.14,0,0,0,1.15,1.14Z"/><ellipse class="cls-22" cx="31.13" cy="84.27" rx="11.5" ry="1.73"/></svg>